<svg width="34" height="26" viewBox="0 0 34 26" fill="none" xmlns="http://www.w3.org/2000/svg">
<path d="M28.7824 2.14825C26.6154 1.15392 24.2916 0.421339 21.8619 0.00176008C21.8176 -0.00633767 21.7734 0.013899 21.7506 0.0543734C21.4517 0.585928 21.1207 1.27938 20.8889 1.82444C18.2756 1.4332 15.6757 1.4332 13.116 1.82444C12.8841 1.26727 12.541 0.585928 12.2408 0.0543734C12.218 0.0152495 12.1738 -0.00498724 12.1296 0.00176008C9.70121 0.419998 7.37738 1.15258 5.20899 2.14825C5.19022 2.15634 5.17413 2.16985 5.16345 2.18738C0.755638 8.77255 -0.451846 15.1959 0.140505 21.5396C0.143185 21.5706 0.160607 21.6003 0.184731 21.6191C3.09288 23.7548 5.90992 25.0514 8.67465 25.9108C8.71889 25.9243 8.76577 25.9081 8.79393 25.8716C9.44793 24.9785 10.0309 24.0368 10.5308 23.0465C10.5603 22.9885 10.5321 22.9197 10.4718 22.8968C9.5471 22.546 8.6666 22.1183 7.81962 21.6326C7.75262 21.5935 7.74726 21.4977 7.80889 21.4518C7.98713 21.3183 8.16541 21.1793 8.3356 21.039C8.36639 21.0134 8.4093 21.008 8.4455 21.0241C14.0098 23.5646 20.0339 23.5646 25.5325 21.0241C25.5687 21.0066 25.6116 21.012 25.6438 21.0376C25.814 21.178 25.9922 21.3183 26.1718 21.4518C26.2334 21.4977 26.2294 21.5935 26.1624 21.6326C25.3154 22.1278 24.4349 22.546 23.5089 22.8954C23.4486 22.9184 23.4218 22.9885 23.4513 23.0465C23.9619 24.0354 24.5448 24.9771 25.1868 25.8703C25.2136 25.9081 25.2618 25.9243 25.3061 25.9108C28.0842 25.0514 30.9012 23.7548 33.8094 21.6191C33.8348 21.6003 33.8509 21.5719 33.8536 21.5409C34.5625 14.2069 32.6662 7.83626 28.8266 2.18872C28.8173 2.16985 28.8012 2.15634 28.7824 2.14825ZM11.3617 17.6769C9.68646 17.6769 8.3061 16.1389 8.3061 14.2501C8.3061 12.3613 9.65969 10.8233 11.3617 10.8233C13.0771 10.8233 14.4441 12.3748 14.4172 14.2501C14.4172 16.1389 13.0637 17.6769 11.3617 17.6769ZM22.6592 17.6769C20.984 17.6769 19.6037 16.1389 19.6037 14.2501C19.6037 12.3613 20.9572 10.8233 22.6592 10.8233C24.3746 10.8233 25.7416 12.3748 25.7148 14.2501C25.7148 16.1389 24.3746 17.6769 22.6592 17.6769Z" fill="white"/>
</svg>
