<svg width="35" height="34" viewBox="0 0 35 34" fill="none" xmlns="http://www.w3.org/2000/svg">
<path fill-rule="evenodd" clip-rule="evenodd" d="M35 17C35 26.3888 27.165 34 17.5 34C7.83502 34 0 26.3888 0 17C0 7.61116 7.83502 0 17.5 0C27.165 0 35 7.61116 35 17ZM18.1271 12.5501C16.425 13.2379 13.0231 14.6614 7.92151 16.8205C7.09309 17.1406 6.65913 17.4536 6.61962 17.7598C6.55285 18.2771 7.21979 18.4808 8.12798 18.7583C8.25151 18.796 8.37952 18.8351 8.51074 18.8765C9.40426 19.1587 10.6062 19.4888 11.231 19.5019C11.7978 19.5138 12.4304 19.2868 13.1289 18.8209C17.8954 15.6953 20.356 14.1154 20.5105 14.0813C20.6194 14.0573 20.7705 14.0271 20.8728 14.1154C20.9751 14.2038 20.965 14.3711 20.9542 14.416C20.8881 14.6896 18.2702 17.054 16.9154 18.2775C16.493 18.659 16.1934 18.9295 16.1322 18.9913C15.995 19.1297 15.8552 19.2607 15.7208 19.3865C14.8907 20.1639 14.2682 20.7468 15.7553 21.6988C16.4699 22.1563 17.0417 22.5346 17.6122 22.912C18.2353 23.3241 18.8567 23.7352 19.6607 24.2472C19.8655 24.3776 20.0612 24.5131 20.2517 24.6451C20.9768 25.1472 21.6282 25.5983 22.4329 25.5264C22.9006 25.4846 23.3836 25.0574 23.6289 23.7835C24.2086 20.7728 25.3482 14.2495 25.6116 11.5614C25.6346 11.3259 25.6056 11.0245 25.5823 10.8921C25.559 10.7598 25.5103 10.5713 25.3332 10.4318C25.1236 10.2665 24.7999 10.2316 24.6551 10.2341C23.9969 10.2454 22.9871 10.5865 18.1271 12.5501Z" fill="white"/>
</svg>
